<svg xmlns="http://www.w3.org/2000/svg" width="35" height="28" viewBox="0 0 35 28" fill="none">
  <path  opacity="0.25" d="M26.6667 19.5714H17.5M8.33333 10.2857L13.8333 14.9286L8.33333 19.5714M1 21.0575V6.94322C1 4.86303 1 3.82215 1.39964 3.02762C1.75118 2.32873 2.3117 1.76093 3.00163 1.40483C3.78597 1 4.8135 1 6.86702 1H28.1337C30.1872 1 31.2126 1 31.9969 1.40483C32.6868 1.76093 33.2492 2.32873 33.6007 3.02762C34 3.82137 34 4.86099 34 6.93712V21.0629C34 23.139 34 24.1771 33.6007 24.9709C33.2492 25.6698 32.6868 26.2395 31.9969 26.5956C31.2133 27 30.1885 27 28.139 27H6.861C4.81149 27 3.7852 27 3.00163 26.5956C2.3117 26.2395 1.75118 25.6698 1.39964 24.9709C1 24.1763 1 23.1377 1 21.0575Z" stroke="white" stroke-width="2" stroke-linecap="round" stroke-linejoin="round"/>
</svg>