<svg width="92" height="19" viewBox="0 0 92 19" fill="none" xmlns="http://www.w3.org/2000/svg">
<g id="nextjs" opacity="0.74" clip-path="url(#clip0_10_1533)">
<path id="Vector" d="M60.7647 0.227783H76.6863V3.16649H70.3704V18.6266H67.2122V3.16649H60.7647V0.227783Z" fill="white"/>
<path id="Vector_2" d="M34.5798 0.227783V3.16649H21.8176V7.89396H32.0809V10.8327H21.8176V15.6879H34.5798V18.6266H18.6596V3.16649H18.6583V0.227783H34.5798Z" fill="white"/>
<path id="Vector_3" d="M42.5299 0.235474H38.3971L53.1999 18.6343H57.3448L49.9424 9.44121L57.333 0.249511L53.1999 0.255898L47.8733 6.87144L42.5299 0.235474Z" fill="white"/>
<path id="Vector_4" d="M46.7708 13.3779L44.7011 10.8046L38.3852 18.6483H42.5299L46.7708 13.3779Z" fill="white"/>
<path id="Vector_5" fill-rule="evenodd" clip-rule="evenodd" d="M18.7703 18.6266L3.94747 0.220093H0V18.6189H3.15798V4.15283L14.803 18.6266H18.7703Z" fill="white"/>
<path id="Vector_6" d="M77.3962 18.5142C77.1649 18.5142 76.9681 18.4341 76.8034 18.2738C76.6387 18.1136 76.5573 17.9196 76.5594 17.6898C76.5573 17.4663 76.6387 17.2744 76.8034 17.1142C76.9681 16.9539 77.1649 16.8738 77.3962 16.8738C77.6187 16.8738 77.8133 16.9539 77.978 17.1142C78.1451 17.2744 78.2284 17.4663 78.2307 17.6898C78.2284 17.8416 78.1899 17.9807 78.1128 18.1051C78.0337 18.2317 77.9333 18.3308 77.8068 18.4025C77.6827 18.4763 77.5458 18.5142 77.3962 18.5142Z" fill="white"/>
<path id="Vector_7" d="M82.7862 10.7633H84.1856V16.1548C84.1835 16.6503 84.0763 17.0741 83.8668 17.4304C83.655 17.7868 83.3618 18.0587 82.9852 18.2506C82.6108 18.4404 82.1721 18.5374 81.6735 18.5374C81.2176 18.5374 80.8091 18.4552 80.4453 18.2949C80.0816 18.1347 79.7927 17.8943 79.5809 17.578C79.3668 17.2617 79.2619 16.8675 79.2619 16.3952H80.6636C80.6657 16.6018 80.7128 16.781 80.8026 16.9307C80.8924 17.0804 81.0165 17.1942 81.175 17.2744C81.3353 17.3545 81.5195 17.3946 81.7269 17.3946C81.9517 17.3946 82.1442 17.3482 82.3004 17.2533C82.4565 17.1605 82.5765 17.0214 82.66 16.8358C82.7412 16.6524 82.7841 16.4247 82.7862 16.1548V10.7633Z" fill="white"/>
<path id="Vector_8" d="M89.9435 12.8719C89.9094 12.545 89.7596 12.2899 89.4986 12.1086C89.2353 11.9251 88.8951 11.8345 88.4778 11.8345C88.1848 11.8345 87.9324 11.8788 87.7226 11.9652C87.5129 12.0538 87.3503 12.1718 87.2389 12.3215C87.1278 12.4712 87.0721 12.642 87.0677 12.8339C87.0677 12.9942 87.1062 13.1333 87.1811 13.2493C87.2561 13.3674 87.3565 13.4665 87.4871 13.5466C87.6154 13.6288 87.7588 13.6963 87.9152 13.7511C88.0734 13.8059 88.2319 13.8523 88.3901 13.8903L89.1197 14.0695C89.413 14.137 89.6976 14.2277 89.9693 14.3436C90.241 14.4575 90.4871 14.603 90.7031 14.778C90.9193 14.953 91.0905 15.1638 91.2167 15.4105C91.3429 15.6572 91.4072 15.9461 91.4072 16.2792C91.4072 16.7283 91.2917 17.1226 91.0583 17.4642C90.8251 17.8036 90.4892 18.0693 90.0484 18.2612C89.6097 18.451 89.0791 18.548 88.4543 18.548C87.8509 18.548 87.3245 18.4552 86.8816 18.2697C86.4367 18.0862 86.0898 17.8163 85.8395 17.4621C85.5892 17.1079 85.4544 16.6756 85.4351 16.1675H86.8218C86.841 16.4331 86.9266 16.6545 87.0721 16.8338C87.2196 17.0109 87.4122 17.1416 87.6477 17.2302C87.8853 17.3166 88.1504 17.3609 88.4437 17.3609C88.7497 17.3609 89.0193 17.3145 89.2524 17.2238C89.4835 17.1332 89.6654 17.0067 89.796 16.8422C89.9287 16.6798 89.995 16.488 89.9971 16.2687C89.995 16.0684 89.935 15.9018 89.8194 15.771C89.7018 15.6403 89.5392 15.5307 89.3315 15.4421C89.122 15.3536 88.878 15.2735 88.5998 15.2039L87.714 14.9804C87.0742 14.818 86.567 14.5713 86.1968 14.2403C85.8246 13.9093 85.6404 13.4707 85.6404 12.9204C85.6404 12.4692 85.7646 12.0728 86.0151 11.7333C86.2631 11.3938 86.6035 11.1302 87.0336 10.9426C87.4658 10.7528 87.9537 10.66 88.497 10.66C89.0492 10.66 89.5327 10.7528 89.95 10.9426C90.3672 11.1302 90.6947 11.3917 90.9321 11.7248C91.1696 12.058 91.2938 12.4396 91.3003 12.8719H89.9435Z" fill="white"/>
</g>
<defs>
<clipPath id="clip0_10_1533">
<rect width="91.4072" height="18.5598" fill="white" transform="translate(0 0.220093)"/>
</clipPath>
</defs>
</svg>
