<svg width="39" height="37" viewBox="0 0 39 37" fill="none" xmlns="http://www.w3.org/2000/svg">
<g id="reactjs" opacity="0.74" clip-path="url(#clip0_10_1543)">
<path id="Vector" d="M22.1363 18.5C22.1363 20.029 20.9008 21.256 19.3254 21.256C17.7501 21.256 16.5145 20.029 16.5145 18.5C16.5145 16.971 17.7501 15.744 19.3254 15.744C20.9008 15.744 22.1363 16.971 22.1363 18.5Z" fill="white" stroke="white"/>
<path id="Vector_2" d="M19.3255 25.197C29.1453 25.197 37.1215 22.2 37.1215 18.5C37.1215 14.8 29.1453 11.803 19.3255 11.803C9.50566 11.803 1.52942 14.8 1.52942 18.5C1.52942 22.2 9.50566 25.197 19.3255 25.197Z" stroke="white" stroke-width="3"/>
<path id="Vector_3" d="M13.4561 21.83C18.3472 30.229 24.969 35.52 28.2423 33.67C31.4779 31.82 30.1611 23.532 25.2324 15.17C20.3037 6.77104 13.6819 1.48004 10.4462 3.33004C7.17298 5.18004 8.52744 13.468 13.4561 21.83Z" stroke="white" stroke-width="3"/>
<path id="Vector_4" d="M13.4562 15.17C8.52746 23.532 7.21062 31.82 10.4463 33.67C13.6819 35.52 20.3037 30.229 25.1948 21.83C30.1235 13.468 31.4779 5.18004 28.2423 3.33004C24.969 1.48004 18.3473 6.77104 13.4562 15.17Z" stroke="white" stroke-width="3"/>
</g>
<defs>
<clipPath id="clip0_10_1543">
<rect width="38" height="37" fill="white" transform="translate(0.400696)"/>
</clipPath>
</defs>
</svg>
