<svg width="52" height="31" viewBox="0 0 52 31" fill="none" xmlns="http://www.w3.org/2000/svg">
<path id="Vector" opacity="0.74" d="M26.0066 0C19.0906 0 14.7226 3.46167 13.0066 10.3333C15.6066 6.87167 18.6226 5.58 22.1066 6.45833C24.0826 6.975 25.4866 8.37 27.0466 9.97167C29.5946 12.555 32.5586 15.5 39.0066 15.5C45.9226 15.5 50.2906 12.0383 52.0066 5.16667C49.4066 8.62833 46.3906 9.92 42.9066 9.04167C40.9306 8.525 39.5266 7.13 37.9666 5.52833C35.4186 2.99667 32.4546 0 26.0066 0ZM13.0066 15.5C6.09059 15.5 1.72259 18.9617 0.0065918 25.8333C2.60659 22.3717 5.62259 21.08 9.10659 21.9583C11.0826 22.475 12.4866 23.87 14.0466 25.4717C16.5946 28.055 19.5586 31 26.0066 31C32.9226 31 37.2906 27.5383 39.0066 20.6667C36.4066 24.1283 33.3906 25.42 29.9066 24.5417C27.9306 24.0767 26.5266 22.63 24.9666 21.0283C22.4186 18.4967 19.4546 15.5 13.0066 15.5Z" fill="white"/>
</svg>
