<svg width="165" height="37" viewBox="0 0 165 37" fill="none" xmlns="http://www.w3.org/2000/svg">
<g id="turborepo-seeklogo 1" opacity="0.74" clip-path="url(#clip0_11_1549)">
<g id="Group">
<g id="Group_2">
<path id="Vector" d="M146.435 0.229346C142.222 0.084816 138.01 1.38558 134.523 4.13165L136.847 5.4324C139.608 3.409 143.094 2.54182 146.435 2.68635V0.229346Z" fill="url(#paint0_linear_11_1549)"/>
<path id="Vector_2" d="M158.783 5.7215C155.878 2.68638 152.101 0.80749 148.033 0.373901V2.8309C151.52 3.40903 154.571 4.99885 157.04 7.45585L158.783 5.7215Z" fill="url(#paint1_linear_11_1549)"/>
<path id="Vector_3" d="M164.013 17.5729C163.868 13.8151 162.415 10.0573 159.946 6.87769L158.202 8.61204C160.236 11.3581 161.398 14.3932 161.544 17.5729H164.013Z" fill="url(#paint2_linear_11_1549)"/>
<path id="Vector_4" d="M159.946 30.0024C162.415 26.8228 163.868 23.065 164.013 19.3073H161.544C161.398 22.4869 160.236 25.522 158.202 28.2681L159.946 30.0024Z" fill="url(#paint3_linear_11_1549)"/>
<path id="Vector_5" d="M148.033 36.5063C151.956 36.0727 155.878 34.1938 158.783 31.1587L157.04 29.4243C154.571 32.0258 151.374 33.6156 148.033 34.0493V36.5063Z" fill="url(#paint4_linear_11_1549)"/>
<path id="Vector_6" d="M134.523 32.7485C138.01 35.4946 142.222 36.7953 146.435 36.6508V34.1938C143.094 34.3383 139.753 33.4711 136.847 31.4478L134.523 32.7485Z" fill="url(#paint5_linear_11_1549)"/>
</g>
<path id="Vector_7" d="M9.52995 13.156V28.1264H4.51422V13.156H0.394165V8.92968H13.65V13.156H9.52995ZM19.6172 8.92968V19.3682C19.6172 19.9283 19.6342 20.5055 19.6683 21.0995C19.7195 21.6766 19.8475 22.2027 20.0522 22.678C20.274 23.1533 20.6152 23.5436 21.0758 23.8492C21.5364 24.1377 22.1848 24.282 23.0207 24.282C23.8566 24.282 24.4964 24.1377 24.94 23.8492C25.4006 23.5436 25.7418 23.1533 25.9636 22.678C26.1854 22.2027 26.3133 21.6766 26.3474 21.0995C26.3986 20.5055 26.4242 19.9283 26.4242 19.3682V8.92968H31.4143V20.0556C31.4143 23.0429 30.7234 25.224 29.3415 26.5988C27.9767 27.9737 25.8698 28.6611 23.0207 28.6611C20.1716 28.6611 18.0561 27.9737 16.6743 26.5988C15.2924 25.224 14.6014 23.0429 14.6014 20.0556V8.92968H19.6172ZM39.2048 17.5097H40.1517C41.1412 17.5097 41.9003 17.306 42.4292 16.8986C42.9581 16.4913 43.2225 15.9057 43.2225 15.1419C43.2225 14.3781 42.9581 13.7925 42.4292 13.3852C41.9003 12.9778 41.1412 12.7741 40.1517 12.7741H39.2048V17.5097ZM50.2342 28.1264H43.9903L39.2048 20.7431V28.1264H34.1891V8.92968H41.9942C43.069 8.92968 44.0073 9.09091 44.8091 9.41341C45.611 9.71893 46.2678 10.1433 46.7796 10.6864C47.3084 11.2295 47.7009 11.8576 47.9568 12.5704C48.2297 13.2833 48.3662 14.0471 48.3662 14.8618C48.3662 16.3215 48.0079 17.5097 47.2914 18.4262C46.5919 19.3258 45.5513 19.9368 44.1694 20.2593L50.2342 28.1264ZM56.0683 24.2565H57.1687C58.4315 24.2565 59.3355 24.0953 59.8813 23.7728C60.4275 23.4503 60.7002 22.9326 60.7002 22.2197C60.7002 21.5069 60.4275 20.9892 59.8813 20.6667C59.3355 20.3442 58.4315 20.1829 57.1687 20.1829H56.0683V24.2565ZM56.0683 16.4658H56.9895C58.5594 16.4658 59.3439 15.8463 59.3439 14.6072C59.3439 13.3682 58.5594 12.7487 56.9895 12.7487H56.0683V16.4658ZM51.0526 8.92968H58.525C60.2996 8.92968 61.647 9.35402 62.5683 10.2027C63.4895 11.0513 63.9501 12.2734 63.9501 13.8689C63.9501 14.8364 63.771 15.6426 63.4127 16.2876C63.0717 16.9156 62.5427 17.4503 61.8261 17.8916C62.5427 18.0273 63.1485 18.2395 63.6431 18.5281C64.1549 18.7996 64.5643 19.1391 64.8714 19.5464C65.1957 19.9538 65.426 20.4121 65.5623 20.9213C65.6991 21.4305 65.7671 21.9736 65.7671 22.5507C65.7671 23.4503 65.6051 24.2481 65.2808 24.9439C64.9738 25.6398 64.5304 26.2254 63.9501 26.7007C63.3871 27.1759 62.6962 27.5324 61.8773 27.77C61.0584 28.0076 60.1372 28.1264 59.1135 28.1264H51.0526V8.92968ZM71.7178 18.5281C71.7178 19.2918 71.8625 19.9963 72.1528 20.6412C72.4427 21.2862 72.8349 21.8463 73.33 22.3216C73.8246 22.7968 74.3959 23.1702 75.0446 23.4418C75.7099 23.6964 76.4092 23.8237 77.143 23.8237C77.8762 23.8237 78.5672 23.6964 79.2158 23.4418C79.8812 23.1702 80.4609 22.7968 80.956 22.3216C81.4678 21.8463 81.8684 21.2862 82.1587 20.6412C82.4486 19.9963 82.5937 19.2918 82.5937 18.5281C82.5937 17.7643 82.4486 17.0598 82.1587 16.4149C81.8684 15.7699 81.4678 15.2098 80.956 14.7345C80.4609 14.2593 79.8812 13.8944 79.2158 13.6398C78.5672 13.3682 77.8762 13.2324 77.143 13.2324C76.4092 13.2324 75.7099 13.3682 75.0446 13.6398C74.3959 13.8944 73.8246 14.2593 73.33 14.7345C72.8349 15.2098 72.4427 15.7699 72.1528 16.4149C71.8625 17.0598 71.7178 17.7643 71.7178 18.5281ZM66.4718 18.5281C66.4718 17.1023 66.736 15.7784 67.2651 14.5563C67.7936 13.3172 68.5274 12.2395 69.4659 11.3229C70.4038 10.4064 71.5215 9.69347 72.8182 9.18428C74.1317 8.65809 75.5731 8.39502 77.143 8.39502C78.6951 8.39502 80.1282 8.65809 81.4422 9.18428C82.7556 9.69347 83.8816 10.4064 84.8201 11.3229C85.7753 12.2395 86.5174 13.3172 87.0465 14.5563C87.575 15.7784 87.8398 17.1023 87.8398 18.5281C87.8398 19.9538 87.575 21.2862 87.0465 22.5253C86.5174 23.7473 85.7753 24.8166 84.8201 25.7332C83.8816 26.6498 82.7556 27.3711 81.4422 27.8973C80.1282 28.4065 78.6951 28.6611 77.143 28.6611C75.5731 28.6611 74.1317 28.4065 72.8182 27.8973C71.5215 27.3711 70.4038 26.6498 69.4659 25.7332C68.5274 24.8166 67.7936 23.7473 67.2651 22.5253C66.736 21.2862 66.4718 19.9538 66.4718 18.5281ZM94.7443 17.5097H95.6911C96.6803 17.5097 97.4396 17.306 97.9687 16.8986C98.4972 16.4913 98.762 15.9057 98.762 15.1419C98.762 14.3781 98.4972 13.7925 97.9687 13.3852C97.4396 12.9778 96.6803 12.7741 95.6911 12.7741H94.7443V17.5097ZM105.774 28.1264H99.5297L94.7443 20.7431V28.1264H89.7285V8.92968H97.5336C98.6084 8.92968 99.5464 9.09091 100.349 9.41341C101.15 9.71893 101.807 10.1433 102.319 10.6864C102.848 11.2295 103.24 11.8576 103.496 12.5704C103.769 13.2833 103.906 14.0471 103.906 14.8618C103.906 16.3215 103.547 17.5097 102.831 18.4262C102.131 19.3258 101.091 19.9368 99.7088 20.2593L105.774 28.1264ZM117.57 13.156H111.608V16.364H117.238V20.5903H111.608V23.9001H117.57V28.1264H106.592V8.92968H117.57V13.156ZM124.923 17.7388H126.586C128.429 17.7388 129.35 16.9411 129.35 15.3456C129.35 13.7501 128.429 12.9523 126.586 12.9523H124.923V17.7388ZM124.923 28.1264H119.907V8.92968H127.891C130.058 8.92968 131.713 9.48979 132.856 10.61C134.016 11.7303 134.596 13.3088 134.596 15.3456C134.596 17.3824 134.016 18.9609 132.856 20.0811C131.713 21.2013 130.058 21.7615 127.891 21.7615H124.923V28.1264ZM140.347 18.5281C140.347 19.2918 140.492 19.9963 140.782 20.6412C141.072 21.2862 141.464 21.8463 141.959 22.3216C142.454 22.7968 143.026 23.1702 143.674 23.4418C144.339 23.6964 145.038 23.8237 145.772 23.8237C146.506 23.8237 147.197 23.6964 147.845 23.4418C148.51 23.1702 149.09 22.7968 149.585 22.3216C150.097 21.8463 150.498 21.2862 150.788 20.6412C151.078 19.9963 151.223 19.2918 151.223 18.5281C151.223 17.7643 151.078 17.0598 150.788 16.4149C150.498 15.7699 150.097 15.2098 149.585 14.7345C149.09 14.2593 148.51 13.8944 147.845 13.6398C147.197 13.3682 146.506 13.2324 145.772 13.2324C145.038 13.2324 144.339 13.3682 143.674 13.6398C143.026 13.8944 142.454 14.2593 141.959 14.7345C141.464 15.2098 141.072 15.7699 140.782 16.4149C140.492 17.0598 140.347 17.7643 140.347 18.5281ZM135.101 18.5281C135.101 17.1023 135.365 15.7784 135.894 14.5563C136.423 13.3172 137.156 12.2395 138.095 11.3229C139.033 10.4064 140.151 9.69347 141.447 9.18428C142.761 8.65809 144.203 8.39502 145.772 8.39502C147.325 8.39502 148.758 8.65809 150.071 9.18428C151.385 9.69347 152.511 10.4064 153.449 11.3229C154.404 12.2395 155.147 13.3172 155.676 14.5563C156.205 15.7784 156.469 17.1023 156.469 18.5281C156.469 19.9538 156.205 21.2862 155.676 22.5253C155.147 23.7473 154.404 24.8166 153.449 25.7332C152.511 26.6498 151.385 27.3711 150.071 27.8973C148.758 28.4065 147.325 28.6611 145.772 28.6611C144.203 28.6611 142.761 28.4065 141.447 27.8973C140.151 27.3711 139.033 26.6498 138.095 25.7332C137.156 24.8166 136.423 23.7473 135.894 22.5253C135.365 21.2862 135.101 19.9538 135.101 18.5281Z" fill="white"/>
</g>
</g>
<defs>
<linearGradient id="paint0_linear_11_1549" x1="1609.02" y1="0.218504" x2="1609.02" y2="3644.53" gradientUnits="userSpaceOnUse">
<stop stop-color="#1E90FF"/>
<stop offset="1" stop-color="#FF1E56"/>
</linearGradient>
<linearGradient id="paint1_linear_11_1549" x1="271.507" y1="-15.1623" x2="271.507" y2="3629.15" gradientUnits="userSpaceOnUse">
<stop stop-color="#1E90FF"/>
<stop offset="1" stop-color="#FF1E56"/>
</linearGradient>
<linearGradient id="paint2_linear_11_1549" x1="-735.198" y1="-659.04" x2="-735.198" y2="2985.27" gradientUnits="userSpaceOnUse">
<stop stop-color="#1E90FF"/>
<stop offset="1" stop-color="#FF1E56"/>
</linearGradient>
<linearGradient id="paint3_linear_11_1549" x1="-735.198" y1="-1889.57" x2="-735.198" y2="1754.75" gradientUnits="userSpaceOnUse">
<stop stop-color="#1E90FF"/>
<stop offset="1" stop-color="#FF1E56"/>
</linearGradient>
<linearGradient id="paint4_linear_11_1549" x1="271.507" y1="-2891.16" x2="271.507" y2="753.156" gradientUnits="userSpaceOnUse">
<stop stop-color="#1E90FF"/>
<stop offset="1" stop-color="#FF1E56"/>
</linearGradient>
<linearGradient id="paint5_linear_11_1549" x1="1609.02" y1="-3091.48" x2="1609.02" y2="552.837" gradientUnits="userSpaceOnUse">
<stop stop-color="#1E90FF"/>
<stop offset="1" stop-color="#FF1E56"/>
</linearGradient>
<clipPath id="clip0_11_1549">
<rect width="163.619" height="36.5629" fill="white" transform="translate(0.394165 0.218506)"/>
</clipPath>
</defs>
</svg>
